<mxfile host="app.diagrams.net" modified="2024-07-17T16:20:56.441Z" agent="Mozilla/5.0 (Windows NT 10.0; Win64; x64) AppleWebKit/537.36 (KHTML, like Gecko) Chrome/126.0.0.0 Safari/537.36" etag="yJxrrrJY1m-RVeR6faKf" version="24.7.1" type="github">
  <diagram name="Page-1" id="ZB7kJSmWLooimYB555_b">
    <mxGraphModel dx="1249" dy="620" grid="1" gridSize="10" guides="1" tooltips="1" connect="1" arrows="1" fold="1" page="1" pageScale="1" pageWidth="850" pageHeight="1100" math="0" shadow="0">
      <root>
        <mxCell id="0" />
        <mxCell id="1" parent="0" />
        <mxCell id="7DQEAmoCYxtYOc1ABMQt-7" value="" style="edgeStyle=orthogonalEdgeStyle;rounded=0;orthogonalLoop=1;jettySize=auto;html=1;" edge="1" parent="1" source="7DQEAmoCYxtYOc1ABMQt-1">
          <mxGeometry relative="1" as="geometry">
            <mxPoint x="300" y="160" as="targetPoint" />
          </mxGeometry>
        </mxCell>
        <mxCell id="7DQEAmoCYxtYOc1ABMQt-1" value="Import: Logo and Random Module" style="shape=process;whiteSpace=wrap;html=1;backgroundOutline=1;" vertex="1" parent="1">
          <mxGeometry x="240" y="50" width="120" height="60" as="geometry" />
        </mxCell>
        <mxCell id="7DQEAmoCYxtYOc1ABMQt-6" value="ask and store: &quot;Do you want to play a game of Blackjack? Type &#39;y&#39; or &#39;n&#39;:&amp;nbsp;" style="rhombus;whiteSpace=wrap;html=1;" vertex="1" parent="1">
          <mxGeometry x="235" y="150" width="130" height="120" as="geometry" />
        </mxCell>
        <mxCell id="7DQEAmoCYxtYOc1ABMQt-10" style="edgeStyle=orthogonalEdgeStyle;rounded=0;orthogonalLoop=1;jettySize=auto;html=1;entryX=0;entryY=0.5;entryDx=0;entryDy=0;" edge="1" parent="1" source="7DQEAmoCYxtYOc1ABMQt-8" target="7DQEAmoCYxtYOc1ABMQt-6">
          <mxGeometry relative="1" as="geometry" />
        </mxCell>
        <mxCell id="7DQEAmoCYxtYOc1ABMQt-8" value="" style="shape=process;whiteSpace=wrap;html=1;backgroundOutline=1;" vertex="1" parent="1">
          <mxGeometry x="120" y="300" width="120" height="60" as="geometry" />
        </mxCell>
        <mxCell id="7DQEAmoCYxtYOc1ABMQt-11" style="edgeStyle=orthogonalEdgeStyle;rounded=0;orthogonalLoop=1;jettySize=auto;html=1;entryX=1;entryY=0.5;entryDx=0;entryDy=0;" edge="1" parent="1" source="7DQEAmoCYxtYOc1ABMQt-9" target="7DQEAmoCYxtYOc1ABMQt-6">
          <mxGeometry relative="1" as="geometry" />
        </mxCell>
        <mxCell id="7DQEAmoCYxtYOc1ABMQt-9" value="" style="shape=process;whiteSpace=wrap;html=1;backgroundOutline=1;" vertex="1" parent="1">
          <mxGeometry x="340" y="290" width="120" height="60" as="geometry" />
        </mxCell>
      </root>
    </mxGraphModel>
  </diagram>
</mxfile>
